<svg id="Layer_1" data-name="Layer 1" xmlns="http://www.w3.org/2000/svg" viewBox="0 0 487 458"><defs><style>.cls-1{fill:#333132;}</style></defs><title>dot-gird</title><circle class="cls-1" cx="7" cy="7" r="7"/><circle class="cls-1" cx="50" cy="7" r="7"/><circle class="cls-1" cx="93" cy="7" r="7"/><circle class="cls-1" cx="136" cy="7" r="7"/><circle class="cls-1" cx="179" cy="7" r="7"/><circle class="cls-1" cx="222" cy="7" r="7"/><circle class="cls-1" cx="265" cy="7" r="7"/><circle class="cls-1" cx="308" cy="7" r="7"/><circle class="cls-1" cx="351" cy="7" r="7"/><circle class="cls-1" cx="394" cy="7" r="7"/><circle class="cls-1" cx="437" cy="7" r="7"/><circle class="cls-1" cx="480" cy="7" r="7"/><circle class="cls-1" cx="7" cy="44" r="7"/><circle class="cls-1" cx="50" cy="44" r="7"/><circle class="cls-1" cx="93" cy="44" r="7"/><circle class="cls-1" cx="136" cy="44" r="7"/><circle class="cls-1" cx="179" cy="44" r="7"/><circle class="cls-1" cx="222" cy="44" r="7"/><circle class="cls-1" cx="265" cy="44" r="7"/><circle class="cls-1" cx="308" cy="44" r="7"/><circle class="cls-1" cx="351" cy="44" r="7"/><circle class="cls-1" cx="394" cy="44" r="7"/><circle class="cls-1" cx="437" cy="44" r="7"/><circle class="cls-1" cx="480" cy="44" r="7"/><circle class="cls-1" cx="7" cy="81" r="7"/><circle class="cls-1" cx="50" cy="81" r="7"/><circle class="cls-1" cx="93" cy="81" r="7"/><circle class="cls-1" cx="136" cy="81" r="7"/><circle class="cls-1" cx="179" cy="81" r="7"/><circle class="cls-1" cx="222" cy="81" r="7"/><circle class="cls-1" cx="265" cy="81" r="7"/><circle class="cls-1" cx="308" cy="81" r="7"/><circle class="cls-1" cx="351" cy="81" r="7"/><circle class="cls-1" cx="394" cy="81" r="7"/><circle class="cls-1" cx="437" cy="81" r="7"/><circle class="cls-1" cx="480" cy="81" r="7"/><circle class="cls-1" cx="7" cy="118" r="7"/><circle class="cls-1" cx="50" cy="118" r="7"/><circle class="cls-1" cx="93" cy="118" r="7"/><circle class="cls-1" cx="136" cy="118" r="7"/><circle class="cls-1" cx="179" cy="118" r="7"/><circle class="cls-1" cx="222" cy="118" r="7"/><circle class="cls-1" cx="265" cy="118" r="7"/><circle class="cls-1" cx="308" cy="118" r="7"/><circle class="cls-1" cx="351" cy="118" r="7"/><circle class="cls-1" cx="394" cy="118" r="7"/><circle class="cls-1" cx="437" cy="118" r="7"/><circle class="cls-1" cx="480" cy="118" r="7"/><circle class="cls-1" cx="7" cy="155" r="7"/><circle class="cls-1" cx="50" cy="155" r="7"/><circle class="cls-1" cx="93" cy="155" r="7"/><circle class="cls-1" cx="136" cy="155" r="7"/><circle class="cls-1" cx="179" cy="155" r="7"/><circle class="cls-1" cx="222" cy="155" r="7"/><circle class="cls-1" cx="265" cy="155" r="7"/><circle class="cls-1" cx="308" cy="155" r="7"/><circle class="cls-1" cx="351" cy="155" r="7"/><circle class="cls-1" cx="394" cy="155" r="7"/><circle class="cls-1" cx="437" cy="155" r="7"/><circle class="cls-1" cx="480" cy="155" r="7"/><circle class="cls-1" cx="7" cy="192" r="7"/><circle class="cls-1" cx="50" cy="192" r="7"/><circle class="cls-1" cx="93" cy="192" r="7"/><circle class="cls-1" cx="136" cy="192" r="7"/><circle class="cls-1" cx="179" cy="192" r="7"/><circle class="cls-1" cx="222" cy="192" r="7"/><circle class="cls-1" cx="265" cy="192" r="7"/><circle class="cls-1" cx="308" cy="192" r="7"/><circle class="cls-1" cx="351" cy="192" r="7"/><circle class="cls-1" cx="394" cy="192" r="7"/><circle class="cls-1" cx="437" cy="192" r="7"/><circle class="cls-1" cx="480" cy="192" r="7"/><circle class="cls-1" cx="7" cy="229" r="7"/><circle class="cls-1" cx="50" cy="229" r="7"/><circle class="cls-1" cx="93" cy="229" r="7"/><circle class="cls-1" cx="136" cy="229" r="7"/><circle class="cls-1" cx="179" cy="229" r="7"/><circle class="cls-1" cx="222" cy="229" r="7"/><circle class="cls-1" cx="265" cy="229" r="7"/><circle class="cls-1" cx="308" cy="229" r="7"/><circle class="cls-1" cx="351" cy="229" r="7"/><circle class="cls-1" cx="394" cy="229" r="7"/><circle class="cls-1" cx="437" cy="229" r="7"/><circle class="cls-1" cx="480" cy="229" r="7"/><circle class="cls-1" cx="7" cy="266" r="7"/><circle class="cls-1" cx="50" cy="266" r="7"/><circle class="cls-1" cx="93" cy="266" r="7"/><circle class="cls-1" cx="136" cy="266" r="7"/><circle class="cls-1" cx="179" cy="266" r="7"/><circle class="cls-1" cx="222" cy="266" r="7"/><circle class="cls-1" cx="265" cy="266" r="7"/><circle class="cls-1" cx="308" cy="266" r="7"/><circle class="cls-1" cx="351" cy="266" r="7"/><circle class="cls-1" cx="394" cy="266" r="7"/><circle class="cls-1" cx="437" cy="266" r="7"/><circle class="cls-1" cx="480" cy="266" r="7"/><circle class="cls-1" cx="7" cy="303" r="7"/><circle class="cls-1" cx="50" cy="303" r="7"/><circle class="cls-1" cx="93" cy="303" r="7"/><circle class="cls-1" cx="136" cy="303" r="7"/><circle class="cls-1" cx="179" cy="303" r="7"/><circle class="cls-1" cx="222" cy="303" r="7"/><circle class="cls-1" cx="265" cy="303" r="7"/><circle class="cls-1" cx="308" cy="303" r="7"/><circle class="cls-1" cx="351" cy="303" r="7"/><circle class="cls-1" cx="394" cy="303" r="7"/><circle class="cls-1" cx="437" cy="303" r="7"/><circle class="cls-1" cx="480" cy="303" r="7"/><circle class="cls-1" cx="7" cy="340" r="7"/><circle class="cls-1" cx="50" cy="340" r="7"/><circle class="cls-1" cx="93" cy="340" r="7"/><circle class="cls-1" cx="136" cy="340" r="7"/><circle class="cls-1" cx="179" cy="340" r="7"/><circle class="cls-1" cx="222" cy="340" r="7"/><circle class="cls-1" cx="265" cy="340" r="7"/><circle class="cls-1" cx="308" cy="340" r="7"/><circle class="cls-1" cx="351" cy="340" r="7"/><circle class="cls-1" cx="394" cy="340" r="7"/><circle class="cls-1" cx="437" cy="340" r="7"/><circle class="cls-1" cx="480" cy="340" r="7"/><circle class="cls-1" cx="7" cy="377" r="7"/><circle class="cls-1" cx="50" cy="377" r="7"/><circle class="cls-1" cx="93" cy="377" r="7"/><circle class="cls-1" cx="136" cy="377" r="7"/><circle class="cls-1" cx="179" cy="377" r="7"/><circle class="cls-1" cx="222" cy="377" r="7"/><circle class="cls-1" cx="265" cy="377" r="7"/><circle class="cls-1" cx="308" cy="377" r="7"/><circle class="cls-1" cx="351" cy="377" r="7"/><circle class="cls-1" cx="394" cy="377" r="7"/><circle class="cls-1" cx="437" cy="377" r="7"/><circle class="cls-1" cx="480" cy="377" r="7"/><circle class="cls-1" cx="7" cy="414" r="7"/><circle class="cls-1" cx="50" cy="414" r="7"/><circle class="cls-1" cx="93" cy="414" r="7"/><circle class="cls-1" cx="136" cy="414" r="7"/><circle class="cls-1" cx="179" cy="414" r="7"/><circle class="cls-1" cx="222" cy="414" r="7"/><circle class="cls-1" cx="265" cy="414" r="7"/><circle class="cls-1" cx="308" cy="414" r="7"/><circle class="cls-1" cx="351" cy="414" r="7"/><circle class="cls-1" cx="394" cy="414" r="7"/><circle class="cls-1" cx="437" cy="414" r="7"/><circle class="cls-1" cx="480" cy="414" r="7"/><circle class="cls-1" cx="7" cy="451" r="7"/><circle class="cls-1" cx="50" cy="451" r="7"/><circle class="cls-1" cx="93" cy="451" r="7"/><circle class="cls-1" cx="136" cy="451" r="7"/><circle class="cls-1" cx="179" cy="451" r="7"/><circle class="cls-1" cx="222" cy="451" r="7"/><circle class="cls-1" cx="265" cy="451" r="7"/><circle class="cls-1" cx="308" cy="451" r="7"/><circle class="cls-1" cx="351" cy="451" r="7"/><circle class="cls-1" cx="394" cy="451" r="7"/><circle class="cls-1" cx="437" cy="451" r="7"/><circle class="cls-1" cx="480" cy="451" r="7"/></svg>